<?xml version="1.0" encoding="utf-8"?>
<!-- Generator: Adobe Illustrator 24.1.1, SVG Export Plug-In . SVG Version: 6.00 Build 0)  -->
<svg version="1.1" id="Laag_1" xmlns="http://www.w3.org/2000/svg" xmlns:xlink="http://www.w3.org/1999/xlink" x="0px" y="0px"
	 viewBox="0 0 500 599.43" style="enable-background:new 0 0 500 599.43;" xml:space="preserve">
<style type="text/css">
	.st0{fill:#FFFFFF;}
</style>
<path class="st0" d="M300,0H0v363.3h0.38C7.6,494.72,116.8,599.43,250,599.43c0.01,0,0.01,0,0.01,0c3.02,0,6.05-0.05,9.1-0.16
	C394.19,594.41,500,483.13,500,345.93V200C500,89.72,410.28,0,300,0z M395.49,345.93c0,78.87-61.31,146.06-140.13,148.89
	c-82.77,2.97-150.85-63.29-150.85-145.4v-23.59h95.5v21.77c0,25.39,18.15,48.08,43.32,51.38c30.47,3.98,56.66-19.84,56.66-49.56V200
	H200v58.79h-95.49V200v-95.49H200H300c52.74,0,95.49,42.75,95.49,95.49V345.93z"/>
</svg>
